HIERARCHY
ROOT Hips
{
  OFFSET 196.326 95.9168 97.7182
  CHANNELS 6 Xposition Yposition Zposition Zrotation Xrotation Yrotation
  JOINT LeftUpLeg
  {
    OFFSET 8.64259 1.95398 -2.38835
    CHANNELS 3 Zrotation Xrotation Yrotation
    JOINT LeftLeg
    {
      OFFSET 43.7702 0 0
      CHANNELS 3 Zrotation Xrotation Yrotation
      JOINT LeftFoot
      {
        OFFSET 40.6238 0 0
        CHANNELS 3 Zrotation Xrotation Yrotation
        JOINT LeftToeBase
        {
          OFFSET 12.7242 0 0
          CHANNELS 3 Zrotation Xrotation Yrotation
          End Site
          {
            OFFSET 0 0 0
          }
        }
      }
    }
  }
  JOINT RightUpLeg
  {
    OFFSET -8.2249 1.95398 -2.59336
    CHANNELS 3 Zrotation Xrotation Yrotation
    JOINT RightLeg
    {
      OFFSET 43.5653 0 0
      CHANNELS 3 Zrotation Xrotation Yrotation
      JOINT RightFoot
      {
        OFFSET 40.6238 0 0
        CHANNELS 3 Zrotation Xrotation Yrotation
        JOINT RightToeBase
        {
          OFFSET 12.7242 0 0
          CHANNELS 3 Zrotation Xrotation Yrotation
          End Site
          {
            OFFSET 0 0 0
          }
        }
      }
    }
  }
  JOINT Spine
  {
    OFFSET 0.165834 0.87714 6.61349
    CHANNELS 3 Zrotation Xrotation Yrotation
    JOINT Spine1
    {
      OFFSET 7.38963 1.71661e-005 0
      CHANNELS 3 Zrotation Xrotation Yrotation
      JOINT Spine2
      {
        OFFSET 11.9445 1.14441e-005 0
        CHANNELS 3 Zrotation Xrotation Yrotation
        JOINT Spine3
        {
          OFFSET 14.7254 4.19617e-005 0
          CHANNELS 3 Zrotation Xrotation Yrotation
          JOINT Spine4
          {
            OFFSET 10.9679 0 0
            CHANNELS 3 Zrotation Xrotation Yrotation
            JOINT RightShoulder
            {
              OFFSET 2.46616 -1.6653 3.69651
              CHANNELS 3 Zrotation Xrotation Yrotation
              JOINT RightArm
              {
                OFFSET 13.0012 0 0
                CHANNELS 3 Zrotation Xrotation Yrotation
                JOINT RightForeArm
                {
                  OFFSET 28.7848 1.52588e-005 0
                  CHANNELS 3 Zrotation Xrotation Yrotation
                  JOINT RightHand
                  {
                    OFFSET 26.5688 1.52588e-005 0
                    CHANNELS 3 Zrotation Xrotation Yrotation
                    End Site
                    {
                      OFFSET 0 0 0
                    }
                  }
                }
              }
            }
            JOINT LeftShoulder
            {
              OFFSET 2.38034 -1.29275 -3.75231
              CHANNELS 3 Zrotation Xrotation Yrotation
              JOINT LeftArm
              {
                OFFSET 16.3182 6.10351e-005 0
                CHANNELS 3 Zrotation Xrotation Yrotation
                JOINT LeftForeArm
                {
                  OFFSET 27.0901 0 0
                  CHANNELS 3 Zrotation Xrotation Yrotation
                  JOINT LeftHand
                  {
                    OFFSET 24.5451 1.52588e-005 0
                    CHANNELS 3 Zrotation Xrotation Yrotation
                    End Site
                    {
                      OFFSET 0 0 0
                    }
                  }
                }
              }
            }
            JOINT Neck
            {
              OFFSET 5.0226 -0.0266342 0
              CHANNELS 3 Zrotation Xrotation Yrotation
              JOINT Head
              {
                OFFSET 6.69363 2.86102e-005 0
                CHANNELS 3 Zrotation Xrotation Yrotation
                End Site
                {
                  OFFSET 0 0 0
                }
              }
            }
          }
        }
      }
    }
  }
}
MOTION
Frames:	9
Frame Time:	0.0416667
-144.544 92.4906 -168.181 80.0436 -16.7137 83.8798 -173.869 8.24877 84.1751 -19.0423 15.1922 -1.35617 65.1358 20.0151 26.2465 55.4059 22.5911 -19.911 -179.937 43.2544 91.1384 -32.3216 8.07795 1.18495 69.8686 -2.80648 -1.46906 50.5465 3.02525 12.9514 -0.250695 7.60798 -90.0963 11.6578 -0.543721 -0.135296 -0.0130275 -0.549151 -0.111234 -22.5489 -0.477945 -0.292454 -2.53624 -0.477923 -0.292452 79.5211 -54.8764 -114.71 23.1875 -10.1705 17.8125 -5.88769 -10.7029 -43.2402 -0.654252 -0.175233 1.66708 -101.373 -38.9501 57.2523 -25.4056 20.3282 5.74875 5.07853 4.98312 -52.0331 11.4193 0.977802 4.40495 -15.2846 -13.7435 -9.97278 -9.64528 -13.6555 -5.50077 
-140.615 92.1017 -166.221 81.1081 -14.8056 83.5284 -174.081 3.5772 84.4933 -16.8171 17.7539 -1.20893 64.5154 19.1923 26.4403 57.3685 23.4595 -22.0251 -178.759 42.0863 87.7737 -24.652 11.3221 0.418743 70.8262 -2.53053 -1.31967 48.6742 2.71597 13.1574 -0.404555 7.57796 -90.0039 11.7185 -0.80647 0.0768952 0.0477842 -0.802324 0.112306 -22.4893 -0.792265 -0.169044 -2.47668 -0.792314 -0.169063 79.1862 -56.3032 -114.646 24.2416 -9.26541 19.6393 -5.71036 -10.7557 -41.5522 0.505015 -0.0986994 3.08519 -100.66 -38.9029 58.3751 -26.2182 20.0368 6.05454 5.30749 6.97245 -48.5663 10.5698 0.908003 4.41643 -14.7684 -12.8846 -10.5331 -5.5018 -12.9303 -4.38726 
-136.275 91.0793 -163.917 81.5402 -14.4288 82.8144 -173.671 -0.087056 84.9242 -16.4731 19.7304 -1.36531 64.2708 18.5438 26.8648 60.2175 25.7283 -21.5669 -178.913 42.8911 85.7565 -23.6807 17.8283 0.607486 72.3783 -2.1276 -1.13453 47.0756 2.94635 18.4063 -0.439221 7.53784 -89.9546 11.7991 -0.852092 0.180778 0.128436 -0.843317 0.218107 -22.409 -0.867033 -0.0836924 -2.39631 -0.867031 -0.0836885 79.2119 -56.2788 -114.619 25.3837 -8.34228 21.0788 -5.96128 -11.3539 -40.0292 1.43329 -0.0586069 2.71448 -100.645 -39.5064 58.6821 -27.0434 19.235 6.64369 4.671 7.77984 -45.5071 10.2092 0.917377 4.7529 -13.5735 -12.8049 -9.42773 0.43869 -12.9038 -3.19321 
-131.412 90.0072 -161.316 81.036 -14.2994 83.1533 -173.381 -1.8594 86.7106 -18.7274 21.5903 -0.675896 63.5066 15.9207 24.6018 63.1504 29.7612 -16.7599 179.389 44.1333 85.698 -27.4723 21.7971 2.10732 70.5693 -2.02639 -1.10436 43.6592 2.50795 22.6352 -0.478474 7.43258 -90.1208 12.0094 -1.00818 -0.129455 0.338848 -1.01286 -0.0849594 -22.199 -0.92266 -0.426493 -2.18638 -0.922624 -0.42649 80.3893 -55.7713 -113.167 25.4299 -8.09526 21.0442 -6.471 -12.77 -38.5733 2.32546 -0.00973105 3.35382 -100.884 -39.7784 58.4281 -29.1986 17.8245 7.25069 3.85709 9.2768 -40.6675 10.3457 0.926167 4.73454 -10.6383 -12.3267 -8.25885 3.86086 -12.1089 -1.29105 
-126.043 89.274 -157.892 80.3687 -16.8162 83.3452 -173.126 -3.53739 88.4483 -21.396 23.4174 -0.0655381 60.119 10.1876 20.5064 68.245 35.2631 -13.762 176.632 46.5965 88.3425 -37.612 20.413 4.04814 67.3582 -1.98008 -1.07721 45.3103 2.67021 19.8049 -0.452408 7.44932 -90.2592 11.9732 -1.0217 -0.406586 0.302658 -1.03861 -0.361223 -22.2344 -0.852274 -0.694866 -2.22173 -0.852276 -0.694858 79.612 -55.9524 -114.184 22.9198 -7.31073 19.4165 -6.89586 -14.0618 -37.1848 2.80321 -0.0102017 3.02225 -101.228 -40.0674 58.0167 -32.0831 14.5631 8.41204 3.11235 9.81425 -35.0454 10.4611 0.954907 4.9051 -6.56619 -11.5147 -6.85276 5.18245 -11.0132 -0.581923 
-120.012 89.0918 -153.867 80.4404 -19.9511 84.3816 -172.605 -4.31606 91.2278 -25.798 25.0166 0.248239 52.5294 0.845507 13.4732 72.1129 42.4998 -6.43368 173.721 44.8028 91.9062 -43.5697 19.6722 5.85858 67.3691 -2.21095 -1.19558 43.2425 2.13045 18.9825 -0.511321 7.47037 -90.404 11.9295 -1.20701 -0.675618 0.258974 -1.23557 -0.621844 -22.2778 -0.948164 -1.00714 -2.26517 -0.94814 -1.00714 79.4124 -54.7586 -114.903 22.3637 -5.4733 17.4053 -7.10472 -13.4035 -37.4441 2.15631 0.00166335 4.3046 -101.336 -40.154 57.8856 -35.1826 12.9453 11.2513 0.867501 7.28757 -30.4458 10.5037 0.94492 4.78687 -3.33417 -9.98507 -4.57073 5.15997 -9.53157 -0.879097 
-113.863 88.721 -149.23 80.1608 -22.6141 83.9186 -172.083 -0.413909 93.2723 -36.0539 21.4316 0.0247764 41.2226 -9.23292 3.77778 61.4088 33.8509 -3.03216 172.616 42.6802 94.2863 -49.6856 17.6112 5.96935 74.9876 -3.96362 -1.94445 34.3886 0.0968235 17.7238 -0.437311 7.32117 -90.3552 12.2289 -1.03737 -0.592812 0.558202 -1.06245 -0.546589 -21.978 -0.811266 -0.877184 -1.96537 -0.811259 -0.877181 80.0793 -52.9813 -114.622 23.0673 -4.76541 16.0252 -5.94777 -10.5257 -38.5681 -0.39278 -0.145656 3.57337 -100.703 -40.3844 58.9949 -36.9428 13.5643 11.7626 -0.619831 8.06533 -25.6862 7.65959 0.513336 2.5458 -1.69715 -9.25196 -3.07113 4.50523 -8.92348 -1.13415 
-108.487 89.4702 -144.916 82.1459 -25.917 85.4584 -172.748 8.26113 93.9172 -52.4109 18.9283 0.40743 40.7254 -9.18015 6.71963 46.4409 18.525 -4.58497 173.976 35.7511 96.5696 -49.3309 17.4144 5.17097 77.2475 -4.53689 -2.1256 33.0418 -0.265613 19.8076 -0.134427 7.40904 -90.3128 12.0539 -0.414802 -0.578434 0.38291 -0.439877 -0.55962 -22.1515 -0.221804 -0.676353 -2.13882 -0.221805 -0.67636 80.432 -52.2751 -114.38 22.4446 -4.75231 13.8412 -5.99835 -8.83862 -42.0883 -0.363161 -0.127525 3.32033 -100.597 -40.2695 59.1103 -38.232 12.5246 13.248 -0.356121 8.29495 -24.9346 7.8848 0.563856 2.91492 -1.04534 -9.02001 -3.35674 4.98818 -8.60263 -0.807873 
-103.252 91.2658 -140.564 83.7911 -28.3537 86.0583 -174.705 17.2013 93.1648 -59.945 17.6443 0.900159 47.4658 -3.6952 11.156 59.9757 28.31 -13.6671 176.342 26.8493 97.4655 -43.8065 18.2891 3.87605 78.7466 -5.02954 -2.29616 33.7793 -0.0835639 20.0668 0.184384 7.45845 -90.167 11.9575 0.287954 -0.36386 0.286538 0.271625 -0.376184 -22.2486 0.383997 -0.260497 -2.23598 0.383965 -0.260509 81.1932 -51.8413 -113.435 21.424 -4.88775 11.2294 -7.04294 -8.47965 -46.5334 -1.957 -0.227006 2.77732 -100.585 -40.1843 59.0902 -38.8721 12.0903 14.3373 -0.316067 7.41118 -25.5679 8.69164 0.648717 3.25526 -0.913705 -8.75647 -3.49742 5.30957 -8.29123 -0.521178 
